<svg width="1280" height="832" viewBox="0 0 1280 832" fill="none" xmlns="http://www.w3.org/2000/svg">
<g clip-path="url(#clip0_75_2)">
<path d="M1117.94 -98.2841C1133.3 -77.7142 1096.05 -38.6064 1077.84 -34.0682C1035.6 -23.5421 990.808 -29.0177 948.408 -18.805C905.843 -8.55263 868.834 21.0259 835.148 47.8775C801.593 74.6255 773.154 116.845 726.651 121.748C694.202 125.169 662.525 111.117 630.595 120.384C592.477 131.448 558.928 151.215 526.503 173.745C492.307 197.506 447.677 225.132 405.561 230.028C362.245 235.064 320.839 234.66 277.27 233.777C231.823 232.856 194.592 214.445 154.678 194.603C128.43 181.554 100.115 162.064 83.1615 137.823C76.3114 128.028 65.5138 120.378 56.1262 113.141C41.3619 101.76 31.0042 87.1678 14.9554 76.9618C-14.8793 57.9887 -42.8956 39.09 -79.6036 43.5387C-101.533 46.1963 -122.929 48.0092 -144.961 49.5567C-152.023 50.0527 -159.92 50.5178 -166.496 53.4807C-168.999 54.6085 -171.341 61.1155 -172.795 58.7867C-181.372 45.0487 -274.773 133.873 -287.142 144.548C-301.371 156.83 -309.996 157.547 -326.48 165.263C-360.715 181.288 -387.939 211.606 -414.152 238.033C-468.346 292.67 -516.643 357.65 -556.813 423.311" stroke="#A0153E" stroke-width="3" stroke-linecap="round"/>
<path d="M1129.27 -74.158C1144.63 -53.588 1107.38 -14.4802 1089.17 -9.94212C1046.94 0.584034 1002.14 -4.8916 959.74 5.32113C917.175 15.5735 880.166 45.152 846.481 72.0036C812.926 98.7516 784.486 140.971 737.984 145.874C705.535 149.295 673.857 135.243 641.928 144.51C603.81 155.574 570.261 175.341 537.836 197.871C503.64 221.632 459.01 249.258 416.894 254.154C373.578 259.19 332.172 258.786 288.602 257.903C243.156 256.982 205.925 238.571 166.011 218.729C139.763 205.68 111.448 186.19 94.4943 161.949C87.6442 152.154 76.8466 144.504 67.459 137.267C52.6947 125.886 42.337 111.294 26.2882 101.088C-3.54656 82.1149 -31.5629 63.2161 -68.2708 67.6648C-90.2002 70.3224 -111.596 72.1353 -133.629 73.6829C-140.69 74.1789 -148.587 74.644 -155.163 77.6068C-157.666 78.7347 -160.008 85.2416 -161.462 82.9128C-170.039 69.1748 -263.441 157.999 -275.809 168.674C-290.039 180.956 -298.663 181.674 -315.148 189.389C-349.382 205.414 -376.607 235.732 -402.819 262.159C-457.013 316.796 -505.31 381.776 -545.48 447.437" stroke="#A0153E" stroke-width="3" stroke-linecap="round"/>
<path d="M1121.77 -131.403C1137.12 -110.833 1099.88 -71.7256 1081.67 -67.1875C1039.43 -56.6613 994.635 -62.137 952.234 -51.9242C909.669 -41.6719 872.66 -12.0934 838.975 14.7583C805.42 41.5062 776.98 83.7259 730.478 88.6289C698.028 92.0501 666.351 77.9977 634.422 87.2651C596.304 98.3285 562.755 118.096 530.33 140.626C496.134 164.387 451.503 192.013 409.388 196.909C366.072 201.945 324.666 201.54 281.096 200.657C235.65 199.736 198.419 181.326 158.505 161.483C132.257 148.435 103.942 128.945 86.9881 104.704C80.1379 94.9088 69.3404 87.2585 59.9527 80.0218C45.1884 68.6404 34.8308 54.0486 18.782 43.8426C-11.0528 24.8695 -39.0691 5.97076 -75.777 10.4194C-97.7065 13.0771 -119.102 14.8899 -141.135 16.4375C-148.196 16.9335 -156.094 17.3986 -162.669 20.3615C-165.172 21.4893 -167.515 27.9963 -168.969 25.6675C-177.546 11.9294 -270.947 100.754 -283.315 111.429C-297.545 123.711 -306.17 124.428 -322.654 132.144C-356.889 148.168 -384.113 178.486 -410.326 204.914C-464.519 259.551 -512.816 324.531 -552.987 390.192" stroke="#A0153E" stroke-width="3" stroke-linecap="round"/>
<path d="M731.599 1139.65C702.575 1104.03 669.297 1064.36 669.326 1015.4C669.348 978.716 705.213 963.48 730.432 944.477C762.955 919.971 784.696 904.793 796.034 863.579C809.403 814.981 778.524 766.248 798.258 717.93C802.616 707.258 807.474 696.43 812.757 686.183C818.322 675.39 828.23 669.509 834.457 659.587C852.482 630.87 843.164 609.208 821.604 585.42C798.664 560.108 777.122 533.112 759.036 504.082C741.995 476.729 713.322 438.087 718.624 403.591C724.187 367.392 744.36 333.424 766.509 305.376C784.832 282.174 794.965 253.651 807.099 226.728C816.388 206.119 821.481 186.819 843.413 177.007C866.37 166.735 896.332 165.613 921.14 167.663C963.141 171.135 1009.78 167.061 1035.82 128.312C1055.26 99.3784 1085.82 58.1688 1123.03 51.4413C1149.98 46.5696 1178.5 54.7101 1205.02 49.5424C1237.32 43.2504 1259.75 10.4902 1284.27 -8.82289C1320.5 -37.3532 1300.21 -75.0479 1280.26 -104.717C1259.73 -135.256 1232.78 -167.754 1249.27 -206.676C1259.97 -231.927 1268.42 -258.053 1293.68 -271.411C1316.58 -283.515 1340.25 -269.277 1362.17 -259.4" stroke="#A0153E" stroke-width="3" stroke-linecap="round"/>
<path d="M744.891 1145.55C715.867 1109.93 682.589 1070.26 682.618 1021.3C682.64 984.618 718.505 969.381 743.725 950.378C776.247 925.872 797.988 910.695 809.326 869.48C822.695 820.882 791.816 772.149 811.55 723.831C815.909 713.159 820.766 702.331 826.049 692.084C831.614 681.291 841.522 675.41 847.75 665.488C865.774 636.771 856.456 615.109 834.897 591.321C811.956 566.009 790.415 539.013 772.329 509.984C755.287 482.63 726.614 443.988 731.916 409.492C737.48 373.293 757.653 339.325 779.801 311.277C798.124 288.075 808.257 259.552 820.391 232.629C829.68 212.02 834.773 192.721 856.705 182.908C879.662 172.636 909.624 171.514 934.432 173.564C976.433 177.036 1023.07 172.962 1049.11 134.213C1068.55 105.28 1099.11 64.07 1136.32 57.3426C1163.27 52.4709 1191.79 60.6113 1218.31 55.4436C1250.61 49.1517 1273.05 16.3915 1297.57 -2.92165C1333.79 -31.4519 1313.5 -69.1467 1293.55 -98.8156C1273.02 -129.355 1246.07 -161.853 1262.56 -200.774C1273.26 -226.026 1281.71 -252.152 1306.98 -265.51C1329.87 -277.614 1353.55 -263.376 1375.46 -253.498" stroke="#A0153E" stroke-width="3" stroke-linecap="round"/>
<path d="M770.878 1157.26C741.853 1121.64 708.575 1081.97 708.604 1033.01C708.626 996.33 744.491 981.094 769.711 962.09C802.233 937.584 823.974 922.407 835.312 881.193C848.681 832.595 817.802 783.861 837.536 735.544C841.895 724.871 846.752 714.043 852.035 703.797C857.6 693.003 867.508 687.123 873.736 677.2C891.76 648.484 882.442 626.822 860.883 603.034C837.942 577.721 816.401 550.726 798.315 521.696C781.273 494.342 752.6 455.7 757.902 421.204C763.466 385.005 783.639 351.037 805.787 322.99C824.11 299.788 834.243 271.264 846.377 244.342C855.666 223.733 860.759 204.433 882.691 194.62C905.648 184.349 935.611 183.226 960.418 185.277C1002.42 188.748 1049.06 184.675 1075.1 145.926C1094.54 116.992 1125.09 75.7823 1162.31 69.0549C1189.26 64.1832 1217.78 72.3237 1244.3 67.156C1276.59 60.864 1299.03 28.1038 1323.55 8.79072C1359.77 -19.7396 1339.48 -57.4343 1319.54 -87.1032C1299.01 -117.643 1272.06 -150.14 1288.55 -189.062C1299.25 -214.313 1307.7 -240.439 1332.96 -253.797C1355.86 -265.901 1379.53 -251.664 1401.45 -241.786" stroke="#A0153E" stroke-width="3" stroke-linecap="round"/>
<path d="M745.514 761.789C752.772 730.388 729.248 690.826 712.683 665.444C689.817 630.41 652.579 571.522 604.955 568.956C572.967 567.232 523.663 588.063 497.262 606.28C463.563 629.533 447.808 646.819 405.714 630.087C366.835 614.634 348.32 572.683 312.664 551.771C297.673 542.978 289.438 536.54 273.54 544.567C251.277 555.809 230.337 568.884 206.681 577.227C169.827 590.225 97.0879 599.684 70.4899 558.932C63.4772 548.187 55.2481 519.616 60.8954 506.971C66.9838 493.338 93.3505 498.334 79.7247 478.07C69.5102 462.878 59.8949 450.299 52.3144 433.592C45.1179 417.731 44.3853 402.686 40.7601 385.922C38.7551 376.65 36.7922 364.073 27.8037 358.629C18.4616 352.97 -0.0299805 354.237 -3.28536 342.004C-13.8595 302.271 -5.04161 262.033 -17.8713 221.867C-31.6017 178.881 -56.4458 135.33 -104.56 127.547C-138.213 122.102 -158.519 163.548 -175.437 185.755C-197.329 214.49 -205.934 253.46 -217.041 287.226C-227.24 318.229 -232.407 353.517 -258.976 374.696C-277.506 389.467 -287.254 408.473 -299.508 427.898" stroke="#A0153E" stroke-width="3" stroke-linecap="round"/>
<path d="M756.552 728.821C763.809 697.42 740.286 657.857 723.72 632.476C700.854 597.442 663.616 538.554 615.993 535.988C584.005 534.264 534.7 555.095 508.3 573.312C474.6 596.565 458.845 613.851 416.751 597.119C377.872 581.665 359.357 539.715 323.701 518.802C308.711 510.01 300.475 503.572 284.578 511.599C262.314 522.841 241.375 535.916 217.718 544.259C180.864 557.257 108.125 566.716 81.5275 525.963C74.5148 515.219 66.2857 486.648 71.933 474.003C78.0214 460.369 104.388 465.366 90.7623 445.101C80.5478 429.91 70.9325 417.331 63.352 400.624C56.1555 384.763 55.4229 369.718 51.7977 352.954C49.7926 343.682 47.8298 331.105 38.8413 325.661C29.4992 320.002 11.0076 321.269 7.75223 309.036C-2.82191 269.303 5.99599 229.065 -6.8337 188.899C-20.5641 145.913 -45.4082 102.362 -93.5225 94.5785C-127.176 89.1343 -147.481 130.58 -164.399 152.787C-186.291 181.522 -194.896 220.492 -206.004 254.258C-216.202 285.261 -221.369 320.549 -247.938 341.728C-266.468 356.499 -276.216 375.505 -288.47 394.93" stroke="#A0153E" stroke-width="3" stroke-linecap="round"/>
<path d="M734.69 795.281C741.948 763.88 718.424 724.318 701.858 698.936C678.992 663.902 641.754 605.015 594.131 602.448C562.143 600.724 512.838 621.555 486.438 639.772C452.739 663.025 436.983 680.311 394.889 663.579C356.011 648.126 337.495 606.176 301.839 585.263C286.849 576.471 278.614 570.032 262.716 578.06C240.453 589.301 219.513 602.377 195.856 610.72C159.003 623.717 86.2636 633.176 59.6657 592.424C52.653 581.679 44.4239 553.109 50.0711 540.463C56.1596 526.83 82.5262 531.827 68.9005 511.562C58.686 496.37 49.0706 483.791 41.4902 467.084C34.2937 451.224 33.5611 436.178 29.9358 419.414C27.9308 410.143 25.968 397.565 16.9795 392.121C7.63742 386.462 -10.8542 387.729 -14.1096 375.497C-24.6837 335.763 -15.8658 295.525 -28.6955 255.359C-42.4259 212.373 -67.27 168.823 -115.384 161.039C-149.037 155.595 -169.343 197.041 -186.261 219.247C-208.153 247.982 -216.758 286.952 -227.866 320.718C-238.064 351.722 -243.231 387.01 -269.8 408.188C-288.33 422.96 -298.078 441.965 -310.332 461.39" stroke="#A0153E" stroke-width="3" stroke-linecap="round"/>
</g>
<defs>
<clipPath id="clip0_75_2">
<rect width="1280" height="832" fill="white"/>
</clipPath>
</defs>
</svg>
